# xmcd CD database file generated by Grip 2.96
# 
# Track frame offsets:
#       150
#       13901
#       26558
#       41026
#       53758
#       68490
#       82172
#       97032
#       108387
#       122977
#       137518
#       149237
#       164279
#       178161
#       188465
#       201975
#       215958
#       229564
# 
# Disc length: 3251 seconds
# 
# Revision: 0
# Processed by: cddbd v1.4PL0 Copyright (c) Steve Scherf et al.
# Submitted via: Grip 2.96
# 
DISCID=0f0cb112
DTITLE=Various Artist - Hard Times in the Country
DYEAR=1900
DGENRE=
TTITLE0=Lee Brothers Trio - Cotton Mill Blues
TTITLE1=Bentley Boys - Down on Penny's Farm
TTITLE2=Frank Hutchison - Miner's Blues
TTITLE3=Lowe Stokes and His North Georgians - Wish I Had Stayed in the Wagon Yard
TTITLE4=Blind Alfred Reed - How Can a Poor Man Stand Such Times and Live
TTITLE5=Uncle Dave Macon - Farm Relief
TTITLE6=Lowe Stokes and His North Georgians - Prohibition is a Failure
TTITLE7=Fisher Hendley - Weave Room Blues
TTITLE8=Kelly Harrell - My Name is John Johanna
TTITLE9=Uncle Dave Macon - From Earth to Heaven
TTITLE10=Dutch Coleman - Gonna Raise Some Bacon at Home
TTITLE11=Carolina Tar Heels - Got the Farm Land Blues
TTITLE12=Georgia Crackers - Riley the Furniture Man
TTITLE13=Dixon Brothers - Sales Tax on the Women
TTITLE14=Ashley and Foster - Bay Rum Blues
TTITLE15=Oscar Ford - Farmer's Dream
TTITLE16=Dave and Howard - Serves 'em Fine
TTITLE17=Uncle Dave Macon - Wreck of the Tennessee Gravy Train
EXTD=
EXTT0=
EXTT1=
EXTT2=
EXTT3=
EXTT4=
EXTT5=
EXTT6=
EXTT7=
EXTT8=
EXTT9=
EXTT10=
EXTT11=
EXTT12=
EXTT13=
EXTT14=
EXTT15=
EXTT16=
EXTT17=
PLAYORDER=
